<?xml version="1.0" standalone="no"?>
<?xml-stylesheet href="light.css" type="text/css"?>
<!DOCTYPE svg PUBLIC "-//W3C//DTD SVG 1.1//EN" "http://www.w3.org/Graphics/SVG/1.1/DTD/svg11.dtd">
<svg xmlns="http://www.w3.org/2000/svg" version="1.1" preserveAspectRatio="xMinYMin meet" viewBox="0 0 1000 1000">
  <defs>
    <filter id="white-glow" x="-150%" y="-150%" width="300%" height="300%">
      <feFlood result="flood" flood-color="#ffffff" flood-opacity="0.15"></feFlood>
      <feComposite in="flood" result="mask" in2="SourceGraphic" operator="in"></feComposite>
      <feMorphology in="mask" result="dilated" operator="dilate" radius="5"></feMorphology>
      <feGaussianBlur in="dilated" result="blurred" stdDeviation="5"></feGaussianBlur>
      <feMerge>
        <feMergeNode in="blurred"></feMergeNode>
        <feMergeNode in="SourceGraphic"></feMergeNode>
      </feMerge>
    </filter>

    <filter id="black-glow" x="-1000%" y="-1000%" width="2000%" height="2000%">
      <feFlood result="flood" flood-color="#000000" flood-opacity="0.15"></feFlood>
      <feComposite in="flood" result="mask" in2="SourceGraphic" operator="in"></feComposite>
      <feMorphology in="mask" result="dilated" operator="dilate" radius="4"></feMorphology>
      <feGaussianBlur in="dilated" result="blurred" stdDeviation="5"></feGaussianBlur>
      <feMerge>
        <feMergeNode in="blurred"></feMergeNode>
        <feMergeNode in="SourceGraphic"></feMergeNode>
      </feMerge>
    </filter>

    <marker id="transitionEndCircle" viewBox="0 -5 10 10" refX="31" refY="0" markerWidth="7" markerHeight="7" orient="auto" class="marker">
      <path d="M0,-4L10,0L0,4"></path>
    </marker>
    <marker id="transitionEndRect" viewBox="0 -5 10 10" refX="10" refY="0" markerWidth="7" markerHeight="7" orient="auto" class="marker">
      <path d="M0,-4L10,0L0,4"></path>
    </marker>
  </defs>

<g transform="translate(374.06329408595633,98.589557898529) scale(0.8732278061889863)"><g><line class="transition" marker-end="url(#transitionEndCircle)" x1="-300" y1="300" x2="-180" y2="300"></line><line class="transition" marker-end="url(#transitionEndCircle)" x1="-180" y1="300" x2="-180" y2="200"></line><line class="transition" marker-end="url(#transitionEndCircle)" x1="-180" y1="200" x2="-60" y2="200"></line><line class="transition" marker-end="url(#transitionEndCircle)" x1="-60" y1="200" x2="-60" y2="300"></line><line class="transition" marker-end="url(#transitionEndCircle)" x1="-60" y1="300" x2="-180" y2="300"></line><line class="transition" marker-end="url(#transitionEndCircle)" x1="-60" y1="300" x2="40" y2="300"></line><line class="transition" marker-end="url(#transitionEndCircle)" x1="40" y1="300" x2="160" y2="300"></line><line class="transition" marker-end="url(#transitionEndCircle)" x1="160" y1="300" x2="260" y2="300"></line><line class="transition" marker-end="url(#transitionEndCircle)" x1="260" y1="300" x2="260" y2="200"></line><line class="transition" marker-end="url(#transitionEndCircle)" x1="260" y1="200" x2="380" y2="200"></line><line class="transition" marker-end="url(#transitionEndCircle)" x1="380" y1="200" x2="380" y2="300"></line><line class="transition" marker-end="url(#transitionEndCircle)" x1="380" y1="300" x2="260" y2="300"></line><line class="transition" marker-end="url(#transitionEndCircle)" x1="380" y1="300" x2="480" y2="300"></line><line class="transition" marker-end="url(#transitionEndCircle)" x1="480" y1="300" x2="580" y2="300"></line></g><g><circle r="30" class="state START" transform="translate(-300,300)"><title>Rule start
The entry node of a rule.</title></circle><circle r="30" class="state STOP" transform="translate(580,300)"><title>Rule stop
The exit state of a rule.</title></circle><circle r="30" class="state BASIC" transform="translate(-180,200)"><title>Basic state</title></circle><circle r="30" class="state PBSTART" transform="translate(-180,300)"><title>Plus block start state
Start of the actual block in a (A|b|...)+ loop.</title></circle><circle r="30" class="state BEND" transform="translate(-60,200)"><title>Block end
Terminal node of a simple (A|b|...) block.</title></circle><circle r="30" class="state PLBACK" transform="translate(-60,300)"><title>Plus loop back
The loop back state from the inner block to the plus block start state.</title></circle><circle r="30" class="state LEND" transform="translate(40,300)"><title>Loop end
Marks the end of a * or + loop.</title></circle><circle r="30" class="state BASIC" transform="translate(160,300)"><title>Basic state</title></circle><circle r="30" class="state BASIC" transform="translate(260,200)"><title>Basic state</title></circle><circle r="30" class="state PBSTART" transform="translate(260,300)"><title>Plus block start state
Start of the actual block in a (A|b|...)+ loop.</title></circle><circle r="30" class="state BEND" transform="translate(380,200)"><title>Block end
Terminal node of a simple (A|b|...) block.</title></circle><circle r="30" class="state PLBACK" transform="translate(380,300)"><title>Plus loop back
The loop back state from the inner block to the plus block start state.</title></circle><circle r="30" class="state LEND" transform="translate(480,300)"><title>Loop end
Marks the end of a * or + loop.</title></circle></g><g><text x="0" y="0" class="stateLabel" transform="translate(-300,300)">0</text><text x="0" y="0" class="stateLabel" transform="translate(580,300)">1</text><text x="0" y="0" class="stateLabel" transform="translate(-180,200)">4</text><text x="0" y="0" class="stateLabel" transform="translate(-180,300)">5</text><text x="0" y="0" class="stateLabel" transform="translate(-60,200)">6</text><text x="0" y="0" class="stateLabel" transform="translate(-60,300)">7</text><text x="0" y="0" class="stateLabel" transform="translate(40,300)">8</text><text x="0" y="0" class="stateLabel" transform="translate(160,300)">9</text><text x="0" y="0" class="stateLabel" transform="translate(260,200)">10</text><text x="0" y="0" class="stateLabel" transform="translate(260,300)">11</text><text x="0" y="0" class="stateLabel" transform="translate(380,200)">12</text><text x="0" y="0" class="stateLabel" transform="translate(380,300)">13</text><text x="0" y="0" class="stateLabel" transform="translate(480,300)">14</text></g><g><text x="0" y="13" class="stateTypeLabel" transform="translate(-300,300)">START</text><text x="0" y="13" class="stateTypeLabel" transform="translate(580,300)">STOP</text><text x="0" y="13" class="stateTypeLabel" transform="translate(-180,200)">BASIC</text><text x="0" y="13" class="stateTypeLabel" transform="translate(-180,300)">PBSTART</text><text x="0" y="13" class="stateTypeLabel" transform="translate(-60,200)">BEND</text><text x="0" y="13" class="stateTypeLabel" transform="translate(-60,300)">PLBACK</text><text x="0" y="13" class="stateTypeLabel" transform="translate(40,300)">LEND</text><text x="0" y="13" class="stateTypeLabel" transform="translate(160,300)">BASIC</text><text x="0" y="13" class="stateTypeLabel" transform="translate(260,200)">BASIC</text><text x="0" y="13" class="stateTypeLabel" transform="translate(260,300)">PBSTART</text><text x="0" y="13" class="stateTypeLabel" transform="translate(380,200)">BEND</text><text x="0" y="13" class="stateTypeLabel" transform="translate(380,300)">PLBACK</text><text x="0" y="13" class="stateTypeLabel" transform="translate(480,300)">LEND</text></g><g><text x="0" y="0" class="linkLabel" transform="translate(-240,300) rotate(0) translate(0, 0)"><tspan x="0" y="1.1em" dy="0em">ε</tspan></text><text x="0" y="0" class="linkLabel" transform="translate(-180,250) rotate(0) translate(10, -10)"><tspan x="0" y="1.1em" dy="0em">ε</tspan></text><text x="0" y="0" class="linkLabel" transform="translate(-120,200) rotate(0) translate(0, 0)"><tspan x="0" y="1.1em" dy="0em">'[0-9]'</tspan></text><text x="0" y="0" class="linkLabel" transform="translate(-60,250) rotate(0) translate(10, -10)"><tspan x="0" y="1.1em" dy="0em">ε</tspan></text><text x="0" y="0" class="linkLabel" transform="translate(-120,300) rotate(360) translate(10, 0)"><tspan x="0" y="1.1em" dy="0em">ε</tspan></text><text x="0" y="0" class="linkLabel" transform="translate(-10,300) rotate(0) translate(0, 0)"><tspan x="0" y="1.1em" dy="0em">ε</tspan></text><text x="0" y="0" class="linkLabel" transform="translate(100,300) rotate(0) translate(0, 0)"><tspan x="0" y="1.1em" dy="0em">ε</tspan></text><text x="0" y="0" class="linkLabel" transform="translate(210,300) rotate(0) translate(0, 0)"><tspan x="0" y="1.1em" dy="0em">'+'</tspan><tspan x="0" y="1.1em" dy="1em">'-'</tspan></text><text x="0" y="0" class="linkLabel" transform="translate(260,250) rotate(0) translate(10, -10)"><tspan x="0" y="1.1em" dy="0em">ε</tspan></text><text x="0" y="0" class="linkLabel" transform="translate(320,200) rotate(0) translate(0, 0)"><tspan x="0" y="1.1em" dy="0em">'[0-9]'</tspan></text><text x="0" y="0" class="linkLabel" transform="translate(380,250) rotate(0) translate(10, -10)"><tspan x="0" y="1.1em" dy="0em">ε</tspan></text><text x="0" y="0" class="linkLabel" transform="translate(320,300) rotate(360) translate(10, 0)"><tspan x="0" y="1.1em" dy="0em">ε</tspan></text><text x="0" y="0" class="linkLabel" transform="translate(430,300) rotate(0) translate(0, 0)"><tspan x="0" y="1.1em" dy="0em">ε</tspan></text><text x="0" y="0" class="linkLabel" transform="translate(530,300) rotate(0) translate(0, 0)"><tspan x="0" y="1.1em" dy="0em">ε</tspan></text></g></g></svg>